<svg id="Layer_1" data-name="Layer 1" xmlns="http://www.w3.org/2000/svg" viewBox="0 0 512 512"><title>arrow left</title><path d="M177.1,260.9A7.07,7.07,0,0,1,175,256a6.51,6.51,0,0,1,2.1-4.9l146-146a7.24,7.24,0,0,0,0-10.2,7.24,7.24,0,0,0-10.2,0l-156,156a7.24,7.24,0,0,0,0,10.2l156,156a7.21,7.21,0,0,0,10.2-10.2Z"/><path d="M256,5C117.6,5,5,117.6,5,256S117.6,507,256,507,507,394.4,507,256,394.4,5,256,5Zm0,490.7C123.8,495.7,16.3,388.2,16.3,256S123.8,16.3,256,16.3,495.7,123.8,495.7,256,388.2,495.7,256,495.7Z"/></svg>