<svg id="Layer_1" data-name="Layer 1" xmlns="http://www.w3.org/2000/svg" viewBox="0 0 512 512"><title>arrow-right</title><path d="M334.9,251.1A7.07,7.07,0,0,1,337,256a6.51,6.51,0,0,1-2.1,4.9l-146,146a7.24,7.24,0,0,0,0,10.2,7.24,7.24,0,0,0,10.2,0l156-156a7.24,7.24,0,0,0,0-10.2l-156-156a7.21,7.21,0,0,0-10.2,10.2Z"/><path d="M256,507c138.4,0,251-112.6,251-251S394.4,5,256,5,5,117.6,5,256,117.6,507,256,507Zm0-490.7c132.2,0,239.7,107.5,239.7,239.7S388.2,495.7,256,495.7,16.3,388.2,16.3,256,123.8,16.3,256,16.3Z"/></svg>