<svg id="Layer_1" data-name="Layer 1" xmlns="http://www.w3.org/2000/svg" viewBox="0 0 512 512"><title>placeholder</title><path d="M257,252.29a75.91,75.91,0,1,1,53.69-22.21A75.72,75.72,0,0,1,257,252.29Zm0-121.79a45.89,45.89,0,1,0,32.46,13.43A45.76,45.76,0,0,0,257,130.5Z"/><path d="M257.14,512l-11.61-13.64C238.73,490.37,79,301.31,79,178,79,79.84,158.84,0,257,0s178,79.84,178,178c0,117.27-159.6,312-166.39,320.21ZM257,30C175.4,30,109,96.4,109,178c0,45.84,27.33,112.19,79.05,191.86,26.84,41.35,53.87,76.37,68.71,94.9,14.88-19,42.16-55.21,69.17-97.34C377.61,286.84,404.9,221.33,404.9,178,404.9,96.4,338.54,30,257,30Z"/></svg>