<?xml version="1.0" encoding="utf-8"?>
<!-- Generator: Adobe Illustrator 18.1.1, SVG Export Plug-In . SVG Version: 6.00 Build 0)  -->
<svg version="1.1" id="Layer_1" xmlns="http://www.w3.org/2000/svg" xmlns:xlink="http://www.w3.org/1999/xlink" x="0px" y="0px"
	 viewBox="0 0 250.6 120.5" enable-background="new 0 0 250.6 120.5" xml:space="preserve">
<g>
	<path d="M193.7,56.1c-0.2,0-0.4-0.2-0.4-0.5V28.5c0-0.1,0.1-0.2,0.4-0.2c0.4,0,0.5,0.4,0.5,1.1v5.7c0.4-1.1,0.9-2,1.7-2.9
		c0.7-0.9,1.5-1.7,2.4-2.2c0.9-0.6,1.9-1.1,2.9-1.4c1.1-0.4,2.2-0.5,3.3-0.5c1.5,0,2.8,0.2,4,0.7c1.2,0.4,2.2,0.9,3,1.7
		c0.9,0.7,1.6,1.5,2.1,2.4c0.5,0.9,0.9,1.9,1.1,2.9c0.7-2.4,2-4.3,3.9-5.6c1.9-1.3,4.1-2,6.6-2c3.3,0,5.9,1.1,7.7,3.4
		c1.9,2.2,2.8,5.2,2.8,9v15.2c0,0.3-0.1,0.5-0.4,0.5c-0.4,0-0.5-0.2-0.5-0.5V40.5c0-3.6-0.8-6.4-2.5-8.5c-1.7-2.1-4.1-3.2-7.2-3.2
		c-1.1,0-2.1,0.2-3.2,0.5c-1.1,0.3-2.1,0.8-3,1.5c-0.9,0.7-1.7,1.5-2.4,2.5c-0.7,1-1.1,2.2-1.4,3.7v18.6c0,0.3-0.1,0.5-0.4,0.5
		c-0.4,0-0.5-0.2-0.5-0.5V38c0-1.2-0.2-2.4-0.7-3.5c-0.4-1.1-1-2.1-1.8-2.9c-0.8-0.9-1.8-1.5-3-2c-1.2-0.5-2.6-0.8-4.2-0.8
		c-1,0-2.1,0.2-3.1,0.5c-1,0.3-2,0.8-2.9,1.5c-0.9,0.7-1.7,1.5-2.5,2.5c-0.7,1-1.2,2.1-1.6,3.4v18.9c0,0.3-0.1,0.5-0.4,0.5H193.7z
		 M171.7,55.7c1.7,0,3.3-0.3,4.7-0.8c1.5-0.6,2.8-1.3,3.9-2.2c1.1-1,2-2.1,2.6-3.5c0.7-1.3,1-2.8,1-4.4v-3.2h-0.6
		c-3.9,0-7.1,0.2-9.7,0.5c-2.6,0.3-4.7,0.7-6.3,1.4c-1.6,0.6-2.7,1.4-3.4,2.4c-0.7,0.9-1,2.1-1,3.4c0,2,0.8,3.6,2.4,4.8
		C167,55.1,169.1,55.7,171.7,55.7 M171.7,56.4c-1.4,0-2.7-0.2-3.9-0.5c-1.1-0.4-2.1-0.8-3-1.4c-0.8-0.6-1.5-1.4-2-2.3
		c-0.5-0.9-0.7-1.9-0.7-3c0-1.5,0.4-2.8,1.1-3.8c0.7-1.1,1.9-1.9,3.5-2.6c1.7-0.7,3.8-1.2,6.6-1.5c2.7-0.4,6.1-0.5,10.1-0.5h0.6
		v-2.2c0-3-0.9-5.4-2.6-7.2c-1.7-1.7-4.1-2.6-7.2-2.6c-2.7,0-4.9,0.5-6.7,1.6c-1.8,1-3,2.3-3.7,3.9c-0.1,0-0.2,0-0.4-0.1
		c-0.1-0.1-0.2-0.2-0.2-0.4c0-0.2,0.1-0.5,0.4-0.9c0.3-0.5,0.7-1,1.2-1.5c0.9-0.9,2-1.6,3.5-2.3c1.5-0.7,3.4-1.1,5.9-1.1
		c3.3,0,5.9,0.9,7.8,2.8c1.9,1.9,2.8,4.4,2.8,7.7V56c0,0.1-0.1,0.1-0.4,0.1c-0.4,0-0.5-0.4-0.5-1.1v-6.9c-0.3,1.1-0.8,2.2-1.5,3.3
		c-0.7,1-1.6,1.9-2.7,2.6c-1.1,0.7-2.3,1.3-3.7,1.8C174.8,56.2,173.3,56.4,171.7,56.4 M139.5,56c-0.6,0-0.9-0.3-0.9-0.9V18.2
		c0-0.3,0.1-0.5,0.4-0.5c0.4,0,0.5,0.2,0.5,0.5v37h19.4c0.3,0,0.5,0.1,0.5,0.4c0,0.4-0.2,0.5-0.5,0.5H139.5z M128.7,56.1
		c-0.3,0-0.4-0.2-0.4-0.5V16.3c0-0.1,0.1-0.1,0.4-0.1c0.4,0,0.6,0.4,0.6,1.1v38.3c0,0.4-0.1,0.5-0.4,0.5H128.7z M110.1,56.1
		c-0.3,0-0.4-0.2-0.4-0.5V28.5c0-0.1,0.1-0.2,0.4-0.2c0.4,0,0.5,0.4,0.5,1.1v7c0.2-1.5,0.6-2.8,1.1-3.9c0.6-1.1,1.2-2,1.9-2.7
		c0.7-0.7,1.6-1.1,2.4-1.4c0.9-0.3,1.8-0.5,2.8-0.5c0.4,0,0.7,0,1.1,0.1c0.4,0.1,0.8,0.2,1.2,0.4c0.4,0.1,0.7,0.3,0.9,0.4
		c0.2,0.2,0.4,0.3,0.4,0.5c0,0.2,0,0.3-0.1,0.4c-0.5-0.2-1-0.5-1.7-0.6c-0.6-0.2-1.3-0.3-1.9-0.3c-2.5,0-4.5,1.1-6,3.2
		c-1.5,2.1-2.2,5.3-2.2,9.5v14.1c0,0.4-0.1,0.5-0.4,0.5H110.1z M88.1,55.7c1.7,0,3.3-0.3,4.7-0.8c1.5-0.6,2.8-1.3,3.9-2.2
		c1.1-1,2-2.1,2.6-3.5c0.7-1.3,1-2.8,1-4.4v-3.2h-0.6c-3.9,0-7.1,0.2-9.7,0.5c-2.6,0.3-4.7,0.7-6.3,1.4c-1.6,0.6-2.7,1.4-3.4,2.4
		c-0.7,0.9-1,2.1-1,3.4c0,2,0.8,3.6,2.4,4.8C83.4,55.1,85.5,55.7,88.1,55.7 M88.1,56.4c-1.4,0-2.7-0.2-3.9-0.5
		c-1.1-0.4-2.1-0.8-3-1.4c-0.8-0.6-1.5-1.4-2-2.3c-0.5-0.9-0.7-1.9-0.7-3c0-1.5,0.4-2.8,1.1-3.8c0.7-1.1,1.9-1.9,3.5-2.6
		c1.7-0.7,3.8-1.2,6.6-1.5c2.7-0.4,6.1-0.5,10.1-0.5h0.6v-2.2c0-3-0.9-5.4-2.6-7.2c-1.7-1.7-4.1-2.6-7.2-2.6c-2.7,0-4.9,0.5-6.7,1.6
		c-1.8,1-3,2.3-3.7,3.9c-0.1,0-0.2,0-0.4-0.1c-0.1-0.1-0.2-0.2-0.2-0.4c0-0.2,0.1-0.5,0.4-0.9c0.3-0.5,0.7-1,1.2-1.5
		c0.9-0.9,2-1.6,3.5-2.3c1.5-0.7,3.4-1.1,5.9-1.1c3.3,0,5.9,0.9,7.8,2.8c1.9,1.9,2.8,4.4,2.8,7.7V56c0,0.1-0.1,0.1-0.4,0.1
		c-0.4,0-0.5-0.4-0.5-1.1v-6.9c-0.3,1.1-0.8,2.2-1.5,3.3c-0.7,1-1.6,1.9-2.7,2.6c-1.1,0.7-2.3,1.3-3.7,1.8
		C91.2,56.2,89.7,56.4,88.1,56.4 M49.1,42.2c0,1.9,0.3,3.7,0.9,5.3c0.6,1.6,1.5,3,2.6,4.3c1.1,1.2,2.5,2.1,4.1,2.8
		c1.6,0.7,3.4,1,5.4,1c1.6,0,3-0.2,4.3-0.6c1.3-0.4,2.3-1,3.2-1.6c0.9-0.7,1.6-1.4,2.1-2.2c0.6-0.8,0.9-1.6,1.2-2.4
		c0.1,0,0.2,0,0.3,0.1c0.2,0.1,0.2,0.2,0.2,0.5c0,0.2-0.2,0.6-0.5,1.4c-0.3,0.7-0.9,1.4-1.8,2.3c-0.8,0.8-2,1.6-3.5,2.3
		c-1.5,0.7-3.3,1-5.6,1c-2.1,0-4-0.4-5.7-1.1c-1.7-0.7-3.2-1.8-4.4-3c-1.2-1.3-2.2-2.8-2.8-4.6c-0.6-1.7-0.9-3.6-0.9-5.6
		c0-2,0.3-3.8,1-5.5c0.7-1.7,1.6-3.2,2.8-4.5c1.2-1.3,2.7-2.3,4.3-3.1c1.7-0.7,3.5-1.1,5.4-1.1c1.8,0,3.5,0.3,5,0.9
		c1.5,0.6,2.8,1.5,3.9,2.7c1.1,1.1,2,2.5,2.5,4c0.6,1.5,0.9,3.2,0.9,5.1c0,0.5-0.2,0.7-0.6,0.7H49.1V42.2z M73.2,40.6
		c0-1.7-0.3-3.3-0.9-4.7c-0.6-1.5-1.3-2.7-2.4-3.7c-1-1.1-2.2-1.9-3.7-2.5c-1.4-0.6-2.9-0.9-4.6-0.9c-1.7,0-3.2,0.3-4.7,0.9
		c-1.5,0.6-2.7,1.4-3.8,2.5c-1.1,1.1-2,2.3-2.7,3.8c-0.7,1.4-1.2,3-1.4,4.6H73.2z M30.5,39.6c4.3,0,7.6-0.9,9.7-2.7
		c2.2-1.9,3.3-4.5,3.3-7.8c0-3.4-1.1-5.9-3.3-7.7c-2.2-1.9-5.4-2.8-9.8-2.8h-9.6v21H30.5z M20.2,56.1c-0.3,0-0.4-0.2-0.4-0.5v-37
		c0-0.6,0.3-0.9,0.9-0.9h9.7c4.6,0,8.1,1,10.5,3c2.4,2,3.5,4.8,3.5,8.3c0,3.6-1.2,6.4-3.5,8.4c-2.3,2-5.8,3-10.4,3h-9.8v15.1
		c0,0.3-0.1,0.5-0.4,0.5H20.2z"/>
	<path fill="#9B3869" d="M205.7,105.7c-2.5,0-4.5-0.3-6-0.9c-1.5-0.6-2.6-1.3-3.3-2.1c-0.5-0.6-0.9-1-1.2-1.4
		c-0.2-0.4-0.3-0.6-0.3-0.8c0-0.2,0.1-0.3,0.2-0.4c0.2-0.1,0.3-0.1,0.4-0.1c0.7,1.4,1.9,2.6,3.5,3.5c1.7,0.9,3.9,1.4,6.7,1.4
		c1.5,0,2.8-0.2,4-0.5c1.2-0.4,2.2-0.8,3.1-1.4c0.8-0.6,1.5-1.3,1.9-2.1c0.4-0.8,0.6-1.7,0.6-2.7c0-1.1-0.3-2.1-0.8-2.8
		c-0.5-0.7-1.2-1.3-2.1-1.8c-0.9-0.5-1.9-0.8-3-1.1c-1.1-0.3-2.3-0.6-3.6-0.8c-1.2-0.2-2.4-0.5-3.7-0.8c-1.2-0.3-2.2-0.7-3.2-1.2
		c-0.9-0.5-1.7-1.2-2.3-2c-0.6-0.8-0.9-1.9-0.9-3.2c0-1.1,0.2-2,0.7-2.9c0.5-0.9,1.2-1.7,2.1-2.3c0.9-0.7,1.9-1.2,3.1-1.5
		c1.2-0.4,2.6-0.5,4-0.5c2,0,3.7,0.3,5.2,1c1.5,0.6,2.7,1.4,3.5,2.2c0.2,0.2,0.4,0.5,0.6,0.8c0.2,0.3,0.3,0.6,0.3,0.7
		c0,0.2-0.1,0.4-0.2,0.5c-0.1,0.1-0.2,0.1-0.3,0.1c-0.6-1.3-1.7-2.3-3.4-3.2c-1.7-0.9-3.6-1.3-5.7-1.3c-2.7,0-4.8,0.6-6.5,1.8
		c-1.7,1.2-2.5,2.8-2.5,4.6c0,1.1,0.3,2.1,0.8,2.8c0.5,0.7,1.2,1.3,2.1,1.8c0.9,0.4,1.9,0.8,3.1,1.1c1.1,0.3,2.3,0.5,3.5,0.8
		c1.3,0.3,2.6,0.6,3.8,0.9c1.2,0.3,2.3,0.7,3.3,1.2c0.9,0.5,1.7,1.2,2.2,2c0.6,0.8,0.9,1.8,0.9,3.1c0,1.1-0.3,2.1-0.8,3
		c-0.5,0.9-1.2,1.7-2.1,2.4c-0.9,0.7-2,1.2-3.4,1.6C208.8,105.5,207.3,105.7,205.7,105.7 M166,91.4c0,1.9,0.3,3.7,0.9,5.3
		c0.6,1.6,1.5,3,2.6,4.3c1.1,1.2,2.5,2.1,4.1,2.8c1.6,0.7,3.4,1,5.4,1c1.6,0,3-0.2,4.3-0.6c1.3-0.4,2.3-1,3.2-1.6
		c0.9-0.7,1.6-1.4,2.1-2.2c0.5-0.8,0.9-1.6,1.2-2.4c0.1,0,0.2,0,0.3,0.1c0.2,0.1,0.2,0.2,0.2,0.5c0,0.2-0.2,0.7-0.5,1.4
		c-0.3,0.7-0.9,1.4-1.8,2.3c-0.8,0.8-2,1.6-3.5,2.3c-1.5,0.7-3.3,1-5.6,1c-2.1,0-4-0.4-5.7-1.1c-1.7-0.7-3.2-1.8-4.4-3
		c-1.2-1.3-2.2-2.8-2.8-4.6c-0.6-1.7-0.9-3.6-0.9-5.6c0-2,0.3-3.8,1-5.5c0.7-1.7,1.6-3.2,2.8-4.5c1.2-1.3,2.7-2.3,4.3-3.1
		c1.7-0.8,3.4-1.1,5.4-1.1c1.8,0,3.5,0.3,5,0.9c1.5,0.6,2.8,1.5,3.9,2.7c1.1,1.1,2,2.5,2.5,4c0.6,1.5,0.9,3.2,0.9,5.1
		c0,0.5-0.2,0.7-0.6,0.7H166V91.4z M190.1,89.8c0-1.7-0.3-3.3-0.9-4.7c-0.6-1.5-1.3-2.7-2.4-3.7c-1-1.1-2.2-1.9-3.7-2.5
		c-1.4-0.6-2.9-0.9-4.6-0.9c-1.7,0-3.2,0.3-4.7,0.9c-1.5,0.6-2.7,1.4-3.8,2.5c-1.1,1.1-2,2.3-2.7,3.8c-0.7,1.4-1.2,3-1.4,4.6H190.1z
		 M157.7,105.3c-0.3,0-0.4-0.2-0.4-0.5V78.1c0-0.4,0.1-0.5,0.4-0.5c0.4,0,0.5,0.2,0.5,0.5v26.8c0,0.3-0.1,0.5-0.4,0.5H157.7z
		 M157.7,69.1c-0.6,0-0.8-0.3-0.8-0.9c0-0.6,0.3-0.9,0.9-0.9c0.6,0,0.8,0.3,0.8,0.9C158.6,68.8,158.3,69.1,157.7,69.1 M139.1,105.3
		c-0.3,0-0.4-0.2-0.4-0.5V77.7c0-0.1,0.1-0.2,0.4-0.2c0.4,0,0.5,0.4,0.5,1.1v7c0.2-1.5,0.6-2.8,1.1-3.9c0.6-1.1,1.2-2,1.9-2.7
		c0.8-0.7,1.6-1.1,2.4-1.4c0.9-0.3,1.8-0.5,2.8-0.5c0.4,0,0.7,0,1.1,0.1c0.4,0.1,0.8,0.2,1.2,0.4c0.4,0.1,0.7,0.3,0.9,0.4
		c0.2,0.2,0.4,0.3,0.4,0.5c0,0.2,0,0.3-0.1,0.4c-0.5-0.2-1-0.5-1.7-0.7c-0.6-0.2-1.3-0.3-1.9-0.3c-2.5,0-4.5,1.1-6,3.2
		c-1.5,2.1-2.2,5.3-2.2,9.5v14.1c0,0.4-0.1,0.5-0.4,0.5H139.1z M107.2,91.4c0,1.9,0.3,3.7,0.9,5.3c0.6,1.6,1.5,3,2.6,4.3
		c1.1,1.2,2.5,2.1,4.1,2.8c1.6,0.7,3.4,1,5.4,1c1.6,0,3-0.2,4.3-0.6c1.3-0.4,2.3-1,3.2-1.6c0.9-0.7,1.6-1.4,2.1-2.2
		c0.6-0.8,0.9-1.6,1.2-2.4c0.1,0,0.2,0,0.3,0.1c0.2,0.1,0.2,0.2,0.2,0.5c0,0.2-0.2,0.7-0.5,1.4c-0.3,0.7-0.9,1.4-1.8,2.3
		c-0.8,0.8-2,1.6-3.5,2.3c-1.5,0.7-3.3,1-5.6,1c-2.1,0-4-0.4-5.7-1.1c-1.7-0.7-3.2-1.8-4.4-3c-1.2-1.3-2.2-2.8-2.8-4.6
		c-0.6-1.7-0.9-3.6-0.9-5.6c0-2,0.3-3.8,1-5.5c0.7-1.7,1.6-3.2,2.8-4.5c1.2-1.3,2.7-2.3,4.3-3.1c1.7-0.8,3.4-1.1,5.4-1.1
		c1.8,0,3.5,0.3,5,0.9c1.5,0.6,2.8,1.5,3.9,2.7c1.1,1.1,2,2.5,2.5,4c0.6,1.5,0.9,3.2,0.9,5.1c0,0.5-0.2,0.7-0.6,0.7h-24.4V91.4z
		 M131.3,89.8c0-1.7-0.3-3.3-0.9-4.7c-0.6-1.5-1.3-2.7-2.4-3.7c-1-1.1-2.2-1.9-3.7-2.5c-1.4-0.6-2.9-0.9-4.5-0.9
		c-1.7,0-3.2,0.3-4.7,0.9c-1.5,0.6-2.7,1.4-3.8,2.5c-1.1,1.1-2,2.3-2.7,3.8c-0.7,1.4-1.2,3-1.4,4.6H131.3z M98.9,105.3
		c-0.3,0-0.4-0.2-0.4-0.5V65.6c0-0.1,0.1-0.1,0.4-0.1c0.4,0,0.6,0.4,0.6,1.1v38.3c0,0.4-0.1,0.5-0.4,0.5H98.9z M88.8,105.3
		c-0.3,0-0.4-0.2-0.4-0.5V65.6c0-0.1,0.1-0.1,0.4-0.1c0.4,0,0.6,0.4,0.6,1.1v38.3c0,0.4-0.1,0.5-0.4,0.5H88.8z M66.6,104.9
		c1.7,0,3.3-0.3,4.7-0.8c1.5-0.6,2.8-1.3,3.9-2.2c1.1-1,2-2.1,2.6-3.5c0.7-1.3,1-2.8,1-4.4v-3.2h-0.6c-3.9,0-7.1,0.2-9.7,0.5
		c-2.6,0.3-4.7,0.7-6.3,1.4c-1.6,0.6-2.7,1.4-3.4,2.4c-0.7,0.9-1,2.1-1,3.4c0,2,0.8,3.6,2.4,4.8C61.9,104.3,64,104.9,66.6,104.9
		 M66.6,105.7c-1.4,0-2.7-0.2-3.9-0.5c-1.1-0.4-2.1-0.8-3-1.4c-0.8-0.6-1.5-1.4-2-2.3c-0.5-0.9-0.7-1.9-0.7-3c0-1.5,0.4-2.8,1.1-3.8
		c0.7-1.1,1.9-1.9,3.5-2.6c1.7-0.7,3.8-1.2,6.6-1.5c2.7-0.4,6.1-0.5,10.1-0.5h0.6v-2.2c0-3-0.9-5.4-2.6-7.2
		c-1.7-1.7-4.1-2.6-7.2-2.6c-2.7,0-4.9,0.5-6.7,1.6c-1.8,1-3,2.3-3.7,3.9c-0.1,0-0.2,0-0.4-0.1c-0.1-0.1-0.2-0.2-0.2-0.4
		c0-0.2,0.1-0.5,0.4-0.9c0.3-0.5,0.7-1,1.2-1.5c0.9-0.9,2-1.6,3.5-2.3c1.5-0.7,3.4-1.1,5.9-1.1c3.3,0,5.9,0.9,7.8,2.8
		c1.9,1.9,2.8,4.4,2.8,7.7v17.4c0,0.1-0.1,0.1-0.4,0.1c-0.4,0-0.5-0.4-0.5-1.1v-6.9c-0.3,1.1-0.8,2.2-1.5,3.3
		c-0.7,1-1.6,1.9-2.7,2.6c-1.1,0.8-2.3,1.3-3.7,1.8C69.7,105.4,68.2,105.7,66.6,105.7 M35.6,105.7c-2.8,0-5.2-0.5-7.4-1.5
		c-2.2-1-4.1-2.3-5.6-4.1C21,98.4,19.8,96.3,19,94c-0.8-2.4-1.2-4.9-1.2-7.7c0-2.8,0.4-5.4,1.3-7.7c0.9-2.4,2.1-4.5,3.7-6.2
		c1.6-1.8,3.5-3.2,5.7-4.1c2.2-1,4.7-1.5,7.4-1.5c2.8,0,5.1,0.4,6.9,1.3c1.9,0.8,3.4,1.8,4.6,3c0.9,0.9,1.6,1.8,2,2.7
		c0.4,0.9,0.6,1.4,0.6,1.6c0,0.3-0.1,0.5-0.2,0.5c-0.2,0.1-0.3,0.1-0.4,0.1C49,74.9,48.5,74,47.9,73c-0.6-1-1.5-1.9-2.6-2.7
		c-1.1-0.8-2.4-1.5-4-2.1c-1.5-0.6-3.4-0.8-5.4-0.8c-2.6,0-4.9,0.5-7,1.4c-2.1,0.9-3.9,2.3-5.4,4c-1.5,1.7-2.7,3.7-3.5,6
		c-0.8,2.3-1.2,4.8-1.2,7.5c0,2.6,0.4,5.1,1.2,7.4c0.8,2.3,1.9,4.3,3.4,5.9c1.5,1.7,3.3,3,5.4,3.9c2.1,0.9,4.4,1.4,7,1.4
		c2.2,0,4.2-0.4,6-1.1c1.9-0.7,3.4-1.7,4.8-3c1.3-1.3,2.4-2.8,3.1-4.6c0.7-1.7,1.1-3.6,1.2-5.7v-1.9H36.9c-0.4,0-0.5-0.1-0.5-0.4
		c0-0.3,0.2-0.4,0.5-0.4h13.9c0.6,0,0.8,0.3,0.8,0.9v16.4c0,0.1-0.1,0.1-0.4,0.1c-0.3,0-0.5-0.4-0.5-1.1v-9.6c-0.4,1.7-1,3.2-2,4.6
		c-0.9,1.3-2,2.5-3.4,3.5c-1.3,0.9-2.8,1.7-4.5,2.2C39.3,105.4,37.5,105.7,35.6,105.7"/>
</g>
</svg>
