<?xml version="1.0" encoding="utf-8"?>
<!-- Generator: Adobe Illustrator 18.1.1, SVG Export Plug-In . SVG Version: 6.00 Build 0)  -->
<svg version="1.1" id="Layer_1" xmlns="http://www.w3.org/2000/svg" xmlns:xlink="http://www.w3.org/1999/xlink" x="0px" y="0px"
	 viewBox="22.8 3088.1 319.9 131.4" enable-background="new 22.8 3088.1 319.9 131.4" xml:space="preserve">
<g>
	<path fill="#FFFFFF" stroke="#FFFFFF" stroke-miterlimit="10" d="M281,3146.6c-0.3,0-0.6-0.3-0.6-0.7v-39.8c0-0.1,0.1-0.3,0.6-0.3
		c0.6,0,0.7,0.6,0.7,1.6v8.4c0.6-1.6,1.3-3,2.5-4.3c1-1.3,2.2-2.5,3.6-3.2c1.3-0.9,2.8-1.6,4.3-2.1c1.6-0.6,3.2-0.7,4.8-0.7
		c2.2,0,4.1,0.3,5.9,1c1.7,0.6,3.2,1.3,4.4,2.5c1.3,1,2.3,2.2,3.1,3.6c0.7,1.3,1.3,2.8,1.6,4.3c1-3.6,3-6.3,5.8-8.3s6-3,9.7-3
		c4.8,0,8.6,1.6,11.3,4.9c2.8,3.2,4.1,7.6,4.1,13.2v22.3c0,0.5-0.1,0.7-0.6,0.7c-0.6,0-0.7-0.3-0.7-0.7v-22.4
		c0-5.3-1.2-9.4-3.7-12.5s-6-4.7-10.6-4.7c-1.6,0-3.1,0.3-4.7,0.7c-1.6,0.5-3.1,1.2-4.4,2.2c-1.3,1-2.5,2.2-3.6,3.7
		c-1,1.5-1.6,3.2-2.1,5.4v27.4c0,0.5-0.1,0.7-0.6,0.7c-0.6,0-0.7-0.3-0.7-0.7v-25.9c0-1.7-0.3-3.6-1-5.2c-0.6-1.6-1.5-3.1-2.6-4.3
		c-1.2-1.3-2.6-2.2-4.4-3c-1.7-0.7-3.8-1.2-6.2-1.2c-1.5,0-3.1,0.3-4.6,0.7c-1.5,0.5-3,1.2-4.3,2.2c-1.3,1-2.5,2.2-3.7,3.7
		c-1,1.5-1.7,3.1-2.3,4.9v27.7c0,0.5-0.1,0.7-0.6,0.7C281.5,3146.6,281,3146.6,281,3146.6z M248.7,3146c2.5,0,4.8-0.5,6.9-1.2
		c2.2-0.9,4.1-2,5.8-3.2c1.6-1.5,3-3.1,3.8-5.2c1-2,1.5-4.1,1.5-6.4v-4.7h-0.9c-5.8,0-10.5,0.3-14.3,0.7c-3.8,0.5-6.9,1-9.2,2.1
		c-2.3,0.9-3.9,2.1-4.9,3.6c-1,1.3-1.5,3.1-1.5,4.9c0,3,1.2,5.3,3.6,7C241.8,3145.1,244.9,3146,248.7,3146 M248.7,3147.1
		c-2.1,0-3.9-0.3-5.8-0.7c-1.6-0.6-3.1-1.2-4.4-2.1c-1.2-0.9-2.2-2.1-3-3.3c-0.7-1.3-1-2.8-1-4.4c0-2.2,0.6-4.1,1.6-5.6
		c1-1.6,2.8-2.8,5.2-3.8c2.5-1,5.6-1.7,9.7-2.2c3.9-0.6,9-0.7,14.8-0.7h0.9v-3.2c0-4.4-1.3-7.9-3.8-10.6c-2.5-2.5-6-3.8-10.6-3.8
		c-3.9,0-7.2,0.7-9.9,2.3c-2.6,1.5-4.4,3.3-5.4,5.8c-0.1,0-0.3,0-0.6-0.1c-0.1-0.1-0.3-0.3-0.3-0.6c0-0.3,0.1-0.7,0.6-1.3
		c0.5-0.7,1-1.5,1.7-2.2c1.3-1.3,3-2.3,5.2-3.3c2.2-1,4.9-1.6,8.6-1.6c4.8,0,8.6,1.3,11.5,4.1c2.8,2.8,4.1,6.4,4.1,11.3v25.7
		c0,0.1-0.1,0.1-0.6,0.1c-0.6,0-0.7-0.6-0.7-1.6v-10.1c-0.5,1.6-1.2,3.2-2.2,4.8c-1,1.5-2.3,2.8-3.9,3.8c-1.6,1-3.3,2-5.4,2.6
		C253.3,3146.7,251.1,3147.1,248.7,3147.1 M201.4,3146.5c-0.9,0-1.3-0.5-1.3-1.3v-54.2c0-0.5,0.1-0.7,0.6-0.7c0.6,0,0.7,0.3,0.7,0.7
		v54.3H230c0.5,0,0.7,0.1,0.7,0.6c0,0.6-0.3,0.7-0.7,0.7h-28.5V3146.5z M185.6,3146.6c-0.5,0-0.6-0.3-0.6-0.7v-57.7
		c0-0.1,0.1-0.1,0.6-0.1c0.6,0,0.9,0.6,0.9,1.6v56.2c0,0.6-0.1,0.7-0.6,0.7L185.6,3146.6L185.6,3146.6z M158.3,3146.6
		c-0.5,0-0.6-0.3-0.6-0.7v-39.8c0-0.1,0.1-0.3,0.6-0.3c0.6,0,0.7,0.6,0.7,1.6v10.2c0.3-2.2,0.9-4.1,1.6-5.8c0.9-1.6,1.7-3,2.8-3.9
		c1-1,2.3-1.6,3.6-2.1c1.3-0.5,2.6-0.7,4.1-0.7c0.6,0,1,0,1.6,0.1c0.6,0.1,1.2,0.3,1.7,0.6c0.6,0.1,1,0.5,1.3,0.6
		c0.3,0.3,0.6,0.5,0.6,0.7c0,0.3,0,0.5-0.1,0.6c-0.7-0.3-1.5-0.7-2.5-0.9c-0.9-0.3-2-0.5-2.8-0.5c-3.7,0-6.6,1.6-8.9,4.7
		c-2.2,3.1-3.2,7.8-3.2,13.9v20.7C158.9,3146.5,158.8,3146.6,158.3,3146.6L158.3,3146.6z M126,3146c2.5,0,4.8-0.5,6.9-1.2
		c2.2-0.9,4.1-2,5.8-3.2c1.6-1.5,3-3.1,3.8-5.2c1-2,1.5-4.1,1.5-6.4v-4.7H143c-5.8,0-10.5,0.3-14.3,0.7c-3.8,0.3-6.9,1-9.2,2.1
		c-2.3,0.9-3.9,2.1-4.9,3.6c-1,1.3-1.5,3.1-1.5,4.9c0,3,1.2,5.3,3.6,7C119.1,3145.1,122.2,3146,126,3146 M126,3147.1
		c-2.1,0-3.9-0.3-5.8-0.7c-1.6-0.6-3.1-1.2-4.4-2.1c-1.2-0.9-2.2-2.1-3-3.3c-0.7-1.3-1-2.8-1-4.4c0-2.2,0.6-4.1,1.6-5.6
		c1-1.6,2.8-2.8,5.2-3.8c2.5-1,5.6-1.7,9.7-2.2c3.9-0.6,9-0.7,14.8-0.7h0.9v-3.2c0-4.4-1.3-7.9-3.8-10.6c-2.5-2.5-6-3.8-10.6-3.8
		c-3.9,0-7.2,0.7-9.9,2.3c-2.6,1.5-4.4,3.3-5.4,5.8c-0.1,0-0.3,0-0.6-0.1c-0.1-0.1-0.3-0.3-0.3-0.6c0-0.3,0.1-0.7,0.6-1.3
		c0.5-0.7,1-1.5,1.7-2.2c1.3-1.3,3-2.3,5.2-3.3c2.2-1,4.9-1.6,8.6-1.6c4.8,0,8.6,1.3,11.5,4.1c2.8,2.8,4.1,6.4,4.1,11.3v25.7
		c0,0.1-0.1,0.1-0.6,0.1c-0.6,0-0.7-0.6-0.7-1.6v-10.1c-0.5,1.6-1.2,3.2-2.2,4.8c-1,1.5-2.3,2.8-3.9,3.8c-1.6,1-3.3,2-5.4,2.6
		C130.6,3146.7,128.3,3147.1,126,3147.1 M68.7,3126.3c0,2.8,0.5,5.4,1.3,7.8c0.9,2.3,2.2,4.4,3.8,6.3c1.6,1.7,3.7,3.1,6,4.1
		c2.3,1,4.9,1.5,7.9,1.5c2.3,0,4.4-0.3,6.3-0.9c2-0.6,3.3-1.5,4.7-2.3c1.3-1,2.3-2.1,3.1-3.2c0.9-1.2,1.3-2.3,1.7-3.6
		c0.1,0,0.3,0,0.5,0.1c0.3,0.1,0.3,0.3,0.3,0.7c0,0.3-0.3,0.9-0.7,2.1c-0.5,1-1.3,2.1-2.6,3.3c-1.2,1.2-3,2.3-5.2,3.3
		c-2.2,1-4.8,1.5-8.3,1.5c-3.1,0-5.9-0.6-8.4-1.6c-2.5-1-4.7-2.6-6.4-4.4c-1.7-2-3.2-4.1-4.1-6.8c-0.9-2.5-1.3-5.3-1.3-8.3
		c0-3,0.5-5.6,1.5-8.1c1-2.5,2.3-4.7,4.1-6.6c1.7-2,3.9-3.3,6.3-4.6c2.5-1,5.2-1.6,7.9-1.6c2.6,0,5.2,0.5,7.4,1.3
		c2.2,0.9,4.1,2.2,5.8,3.9c1.6,1.6,3,3.7,3.7,5.9c0.9,2.2,1.3,4.7,1.3,7.5c0,0.7-0.3,1-0.9,1H68.7
		C68.7,3124.8,68.7,3126.3,68.7,3126.3z M104.1,3123.8c0-2.5-0.5-4.8-1.3-6.9c-0.9-2.2-2-3.9-3.6-5.4c-1.5-1.6-3.2-2.8-5.4-3.7
		c-2.1-0.9-4.3-1.3-6.8-1.3c-2.5,0-4.7,0.5-6.9,1.3c-2.2,0.9-3.9,2.1-5.6,3.7c-1.6,1.6-3,3.3-3.9,5.6c-1,2.1-1.7,4.4-2.1,6.8
		C68.6,3123.8,104.1,3123.8,104.1,3123.8z M41.3,3122.3c6.3,0,11.2-1.3,14.3-3.9c3.2-2.8,4.8-6.6,4.8-11.5s-1.6-8.6-4.8-11.3
		c-3.2-2.8-7.9-4.1-14.4-4.1h-14v30.8H41.3z M26.3,3146.6c-0.5,0-0.6-0.3-0.6-0.7v-54.3c0-0.9,0.5-1.3,1.3-1.3h14.3
		c6.8,0,11.8,1.5,15.4,4.4c3.6,2.9,5.2,7,5.2,12.2c0,5.3-1.7,9.4-5.2,12.3c-3.5,2.9-8.5,4.4-15.3,4.4H27v22.2c0,0.5-0.1,0.7-0.6,0.7
		h-0.1V3146.6z"/>
	<path fill="#FFFFFF" stroke="#FFFFFF" stroke-miterlimit="10" d="M298.8,3219.4c-3.7,0-6.6-0.5-8.9-1.3c-2.2-0.9-3.8-2-4.8-3.1
		c-0.7-0.9-1.3-1.5-1.7-2.1c-0.3-0.6-0.5-0.9-0.5-1.2s0.1-0.5,0.3-0.6c0.3-0.1,0.5-0.1,0.6-0.1c1,2.1,2.8,3.8,5.2,5.2
		c2.5,1.3,5.8,2.1,9.9,2.1c2.2,0,4.1-0.3,5.9-0.7c1.7-0.6,3.2-1.2,4.6-2.1c1.2-0.9,2.2-2,2.8-3.1c0.6-1.2,0.9-2.5,0.9-3.9
		c0-1.6-0.5-3.1-1.2-4.1s-1.7-2-3.1-2.6c-1.3-0.7-2.8-1.2-4.4-1.6c-1.6-0.5-3.3-0.9-5.3-1.2c-1.7-0.3-3.6-0.7-5.4-1.2
		c-1.7-0.5-3.2-1-4.7-1.7c-1.3-0.7-2.5-1.7-3.3-3c-0.9-1.2-1.3-2.8-1.3-4.7c0-1.6,0.3-3,1-4.3c0.7-1.3,1.7-2.5,3.1-3.3
		c1.3-1,2.8-1.7,4.6-2.2c1.7-0.6,3.8-0.7,5.9-0.7c3,0,5.4,0.5,7.6,1.5c2.2,0.9,3.9,2.1,5.2,3.2c0.3,0.3,0.6,0.7,0.9,1.2
		s0.5,0.9,0.5,1c0,0.3-0.1,0.6-0.3,0.7c-0.1,0.1-0.3,0.1-0.5,0.1c-0.9-2-2.5-3.3-4.9-4.7c-2.5-1.3-5.3-2-8.4-2c-3.9,0-7,0.9-9.5,2.6
		s-3.7,4.1-3.7,6.8c0,1.6,0.5,3.1,1.2,4.1c0.7,1,1.7,2,3.1,2.6c1.3,0.6,2.8,1.2,4.6,1.6c1.6,0.5,3.3,0.7,5.2,1.2
		c2,0.5,3.8,0.9,5.6,1.3c1.7,0.5,3.3,1,4.8,1.7c1.3,0.7,2.5,1.7,3.2,3c0.9,1.2,1.3,2.6,1.3,4.6c0,1.6-0.5,3.1-1.2,4.4
		c-0.7,1.3-1.7,2.5-3.1,3.6c-1.3,1-3,1.7-4.9,2.3C303.2,3219.2,301.1,3219.4,298.8,3219.4 M240.4,3198.5c0,2.8,0.5,5.4,1.3,7.8
		c0.9,2.3,2.2,4.4,3.8,6.3c1.6,1.7,3.7,3.1,6,4.1c2.3,1,4.9,1.5,7.9,1.5c2.3,0,4.4-0.3,6.3-0.9c2-0.6,3.3-1.5,4.7-2.3
		c1.3-1,2.3-2.1,3.1-3.2c0.7-1.2,1.3-2.3,1.7-3.6c0.1,0,0.3,0,0.5,0.1c0.3,0.1,0.3,0.3,0.3,0.7c0,0.3-0.3,1-0.7,2.1
		c-0.5,1-1.3,2.1-2.6,3.3c-1.2,1.2-3,2.3-5.2,3.3c-2.2,1-4.8,1.5-8.3,1.5c-3.1,0-5.9-0.6-8.4-1.6c-2.5-1-4.7-2.6-6.4-4.4
		c-1.7-2-3.2-4.1-4.1-6.8c-0.9-2.5-1.3-5.3-1.3-8.3c0-3,0.5-5.6,1.5-8.1c1-2.4,2.3-4.7,4.1-6.6s3.9-3.3,6.3-4.6
		c2.5-1.2,4.9-1.6,7.9-1.6c2.6,0,5.2,0.5,7.4,1.3c2.2,0.9,4.1,2.2,5.8,3.9c1.6,1.6,3,3.7,3.7,5.9c0.9,2.2,1.3,4.7,1.3,7.5
		c0,0.7-0.3,1-0.9,1h-35.7L240.4,3198.5L240.4,3198.5z M275.8,3196.1c0-2.5-0.5-4.8-1.3-6.9c-0.9-2.2-2-3.9-3.6-5.4
		c-1.5-1.6-3.2-2.8-5.4-3.7c-2.1-0.9-4.3-1.3-6.8-1.3s-4.7,0.5-6.9,1.3c-2.2,0.9-3.9,2.1-5.6,3.7c-1.6,1.6-3,3.3-3.9,5.6
		c-1,2.1-1.7,4.4-2.1,6.8C240.2,3196.1,275.8,3196.1,275.8,3196.1z M228.2,3218.8c-0.5,0-0.6-0.3-0.6-0.7v-39.2
		c0-0.6,0.1-0.7,0.6-0.7c0.6,0,0.7,0.3,0.7,0.7v39.3c0,0.5-0.1,0.7-0.6,0.7h-0.1V3218.8z M228.2,3165.7c-0.9,0-1.2-0.5-1.2-1.3
		s0.5-1.3,1.3-1.3c0.9,0,1.2,0.5,1.2,1.3S229.1,3165.7,228.2,3165.7 M200.9,3218.8c-0.5,0-0.6-0.3-0.6-0.7v-39.8
		c0-0.1,0.1-0.3,0.6-0.3c0.6,0,0.7,0.6,0.7,1.6v10.2c0.3-2.2,0.9-4.1,1.6-5.8c0.9-1.6,1.7-3,2.8-3.9c1.2-1,2.3-1.6,3.6-2.1
		c1.3-0.5,2.6-0.7,4.1-0.7c0.6,0,1,0,1.6,0.1c0.6,0.1,1.2,0.3,1.7,0.6c0.6,0.1,1,0.5,1.3,0.6c0.3,0.3,0.6,0.5,0.6,0.7s0,0.5-0.1,0.6
		c-0.7-0.3-1.5-0.7-2.5-1c-0.9-0.3-2-0.5-2.8-0.5c-3.7,0-6.6,1.6-8.9,4.7c-2.2,3.1-3.2,7.8-3.2,13.9v20.7c0,0.6-0.1,0.7-0.6,0.7l0,0
		v0.3H200.9z M154.1,3198.5c0,2.8,0.5,5.4,1.3,7.8c0.8,2.4,2.2,4.4,3.8,6.3c1.6,1.7,3.7,3.1,6,4.1c2.3,1,4.9,1.5,7.9,1.5
		c2.3,0,4.4-0.3,6.3-0.9c2-0.6,3.3-1.5,4.7-2.3c1.3-1,2.3-2.1,3.1-3.2c0.9-1.2,1.3-2.3,1.7-3.6c0.1,0,0.3,0,0.5,0.1
		c0.3,0.1,0.3,0.3,0.3,0.7c0,0.3-0.3,1-0.7,2.1c-0.5,1-1.3,2.1-2.6,3.3c-1.2,1.2-3,2.3-5.2,3.3c-2.2,1-4.8,1.5-8.3,1.5
		c-3.1,0-5.9-0.6-8.4-1.6c-2.5-1-4.7-2.6-6.4-4.4c-1.7-2-3.2-4.1-4.1-6.8c-0.9-2.5-1.3-5.3-1.3-8.3c0-3,0.5-5.6,1.5-8.1
		c1-2.5,2.3-4.7,4.1-6.6s3.9-3.3,6.3-4.6c2.5-1.2,4.9-1.6,7.9-1.6c2.6,0,5.2,0.5,7.4,1.3c2.2,0.9,4.1,2.2,5.8,3.9
		c1.6,1.6,3,3.7,3.7,5.9c0.9,2.2,1.3,4.7,1.3,7.5c0,0.7-0.3,1-0.9,1h-35.9v1.3h0.2V3198.5z M189.5,3196.1c0-2.5-0.5-4.8-1.3-6.9
		c-0.9-2.2-2-3.9-3.6-5.4c-1.5-1.6-3.2-2.8-5.4-3.7c-2.1-0.9-4.3-1.3-6.6-1.3c-2.5,0-4.7,0.5-6.9,1.3c-2.2,0.9-3.9,2.1-5.6,3.7
		c-1.6,1.6-3,3.3-3.9,5.6c-1,2.1-1.7,4.4-2.1,6.8C154.1,3196.1,189.5,3196.1,189.5,3196.1z M141.9,3218.8c-0.5,0-0.6-0.3-0.6-0.7
		v-57.6c0-0.1,0.1-0.1,0.6-0.1c0.6,0,0.9,0.6,0.9,1.6v56.2c0,0.6-0.1,0.7-0.6,0.7h-0.3V3218.8z M127,3218.8c-0.5,0-0.6-0.3-0.6-0.7
		v-57.6c0-0.1,0.1-0.1,0.6-0.1c0.6,0,0.9,0.6,0.9,1.6v56.2c0,0.6-0.1,0.7-0.6,0.7H127V3218.8z M94.4,3218.3c2.5,0,4.8-0.5,6.9-1.2
		c2.2-0.9,4.1-2,5.8-3.2c1.6-1.5,3-3.1,3.8-5.2c1-2,1.5-4.1,1.5-6.4v-4.7h-0.9c-5.8,0-10.5,0.3-14.3,0.7c-3.8,0.3-6.9,1-9.2,2.1
		c-2.3,0.9-3.9,2.1-4.9,3.6c-1,1.3-1.5,3.1-1.5,4.9c0,3,1.2,5.3,3.6,7C87.5,3217.4,90.6,3218.3,94.4,3218.3 M94.4,3219.4
		c-2.1,0-3.9-0.3-5.8-0.7c-1.6-0.6-3.1-1.2-4.4-2.1c-1.2-0.9-2.2-2.1-3-3.3c-0.7-1.3-1-2.8-1-4.4c0-2.2,0.6-4.1,1.6-5.6
		c1-1.6,2.8-2.8,5.2-3.8c2.5-1,5.6-1.7,9.7-2.2c3.9-0.6,9-0.7,14.8-0.7h0.9v-3.2c0-4.4-1.3-7.9-3.8-10.6c-2.5-2.5-6-3.8-10.6-3.8
		c-3.9,0-7.2,0.7-9.9,2.3c-2.6,1.5-4.4,3.3-5.4,5.8c-0.1,0-0.3,0-0.6-0.1c-0.1-0.1-0.3-0.3-0.3-0.6s0.1-0.7,0.6-1.3
		c0.5-0.7,1-1.5,1.7-2.2c1.3-1.3,3-2.3,5.2-3.3c2.2-1,4.9-1.6,8.6-1.6c4.8,0,8.6,1.3,11.5,4.1c2.9,2.9,4.1,6.4,4.1,11.3v25.5
		c0,0.1-0.1,0.1-0.6,0.1c-0.6,0-0.7-0.6-0.7-1.6v-10.1c-0.5,1.6-1.2,3.2-2.2,4.8c-1,1.5-2.3,2.8-3.9,3.8c-1.6,1.2-3.3,2-5.4,2.6
		C99,3219.1,96.8,3219.4,94.4,3219.4 M48.9,3219.4c-4.1,0-7.6-0.7-10.8-2.2c-3.2-1.5-6-3.3-8.3-6c-2.3-2.5-4.1-5.6-5.3-9
		c-1.2-3.6-1.7-7.2-1.7-11.3s0.6-7.9,2-11.3c1.3-3.6,3.1-6.6,5.4-9.1c2.3-2.6,5.2-4.7,8.4-6c3.2-1.5,6.9-2.2,10.8-2.2
		c4.1,0,7.5,0.6,10.1,2c2.8,1.2,4.9,2.6,6.8,4.4c1.3,1.3,2.3,2.6,3,3.9c0.6,1.3,0.9,2.1,0.9,2.3c0,0.5-0.1,0.7-0.3,0.7
		c-0.3,0.1-0.5,0.1-0.6,0.1c-0.6-1.6-1.3-3-2.2-4.4c-0.9-1.5-2.2-2.8-3.8-3.9c-1.6-1.2-3.6-2.2-5.9-3.1c-2.2-0.9-4.9-1.2-7.9-1.2
		c-3.8,0-7.2,0.7-10.2,2.1c-3.1,1.3-5.8,3.3-7.9,5.9c-2.2,2.5-3.9,5.4-5.2,8.9c-1.3,3.5-1.7,7-1.7,11c0,3.8,0.6,7.5,1.7,10.8
		c1.2,3.3,2.8,6.3,4.9,8.6c2.2,2.5,4.8,4.4,7.9,5.8c3.1,1.3,6.4,2.1,10.2,2.1c3.2,0,6.2-0.6,8.9-1.6c2.8-1,4.9-2.5,7-4.4
		c2-2,3.6-4.1,4.6-6.8c1-2.5,1.6-5.3,1.7-8.4v-2.8H50.8c-0.6,0-0.7-0.1-0.7-0.6s0.3-0.6,0.7-0.6h20.4c0.9,0,1.2,0.5,1.2,1.3v24
		c0,0.1-0.1,0.1-0.6,0.1c-0.5,0-0.7-0.6-0.7-1.6V3203c-0.6,2.5-1.5,4.7-3,6.8c-1.3,2-3,3.7-4.9,5.2c-2,1.3-4.1,2.5-6.6,3.2
		C54.3,3219.1,51.7,3219.4,48.9,3219.4"/>
</g>
</svg>
