<?xml version="1.0" encoding="utf-8"?>
<!-- Generator: Adobe Illustrator 18.1.1, SVG Export Plug-In . SVG Version: 6.00 Build 0)  -->
<svg version="1.1" id="Layer_1" xmlns="http://www.w3.org/2000/svg" xmlns:xlink="http://www.w3.org/1999/xlink" x="0px" y="0px"
	 viewBox="22.7 1548.8 278.2 114.3" enable-background="new 22.7 1548.8 278.2 114.3" xml:space="preserve">
<g>
	<path d="M247.3,1599.7c-0.3,0-0.5-0.3-0.5-0.6v-34.6c0-0.1,0.1-0.3,0.5-0.3c0.5,0,0.6,0.5,0.6,1.4v7.3c0.5-1.4,1.1-2.6,2.2-3.7
		c0.9-1.1,1.9-2.2,3.1-2.8c1.1-0.8,2.4-1.4,3.7-1.8c1.4-0.5,2.8-0.6,4.2-0.6c1.9,0,3.6,0.3,5.1,0.9c1.5,0.5,2.8,1.1,3.8,2.2
		c1.1,0.9,2,1.9,2.7,3.1c0.6,1.1,1.1,2.4,1.4,3.7c0.9-3.1,2.6-5.5,5-7.2c2.4-1.7,5.2-2.6,8.4-2.6c4.2,0,7.5,1.4,9.8,4.3
		c2.4,2.8,3.6,6.6,3.6,11.5v19.4c0,0.4-0.1,0.6-0.5,0.6c-0.5,0-0.6-0.3-0.6-0.6v-19.5c0-4.6-1-8.2-3.2-10.9
		c-2.2-2.7-5.2-4.1-9.2-4.1c-1.4,0-2.7,0.3-4.1,0.6c-1.4,0.4-2.7,1-3.8,1.9c-1.1,0.9-2.2,1.9-3.1,3.2c-0.9,1.3-1.4,2.8-1.8,4.7v23.8
		c0,0.4-0.1,0.6-0.5,0.6c-0.5,0-0.6-0.3-0.6-0.6v-22.5c0-1.5-0.3-3.1-0.9-4.5c-0.5-1.4-1.3-2.7-2.3-3.7c-1-1.1-2.3-1.9-3.8-2.6
		c-1.5-0.6-3.3-1-5.4-1c-1.3,0-2.7,0.3-4,0.6c-1.3,0.4-2.6,1-3.7,1.9c-1.1,0.9-2.2,1.9-3.2,3.2c-0.9,1.3-1.5,2.7-2,4.3v24.1
		c0,0.4-0.1,0.6-0.5,0.6C247.7,1599.7,247.3,1599.7,247.3,1599.7z M219.2,1599.2c2.2,0,4.2-0.4,6-1c1.9-0.8,3.6-1.7,5-2.8
		c1.4-1.3,2.6-2.7,3.3-4.5c0.9-1.7,1.3-3.6,1.3-5.6v-4.1h-0.8c-5,0-9.1,0.3-12.4,0.6c-3.3,0.4-6,0.9-8,1.8c-2,0.8-3.4,1.8-4.3,3.1
		c-0.9,1.1-1.3,2.7-1.3,4.3c0,2.6,1,4.6,3.1,6.1C213.2,1598.4,215.9,1599.2,219.2,1599.2 M219.2,1600.1c-1.8,0-3.4-0.3-5-0.6
		c-1.4-0.5-2.7-1-3.8-1.8c-1-0.8-1.9-1.8-2.6-2.9c-0.6-1.1-0.9-2.4-0.9-3.8c0-1.9,0.5-3.6,1.4-4.9c0.9-1.4,2.4-2.4,4.5-3.3
		c2.2-0.9,4.9-1.5,8.4-1.9c3.4-0.5,7.8-0.6,12.9-0.6h0.8v-2.8c0-3.8-1.1-6.9-3.3-9.2c-2.2-2.2-5.2-3.3-9.2-3.3c-3.4,0-6.3,0.6-8.6,2
		c-2.3,1.3-3.8,2.9-4.7,5c-0.1,0-0.3,0-0.5-0.1c-0.1-0.1-0.3-0.3-0.3-0.5c0-0.3,0.1-0.6,0.5-1.1c0.4-0.6,0.9-1.3,1.5-1.9
		c1.1-1.1,2.6-2,4.5-2.9c1.9-0.9,4.3-1.4,7.5-1.4c4.2,0,7.5,1.1,10,3.6c2.4,2.4,3.6,5.6,3.6,9.8v22.3c0,0.1-0.1,0.1-0.5,0.1
		c-0.5,0-0.6-0.5-0.6-1.4v-8.8c-0.4,1.4-1,2.8-1.9,4.2c-0.9,1.3-2,2.4-3.4,3.3c-1.4,0.9-2.9,1.7-4.7,2.3
		C223.2,1599.8,221.3,1600.1,219.2,1600.1 M178.1,1599.6c-0.8,0-1.1-0.4-1.1-1.1v-47.1c0-0.4,0.1-0.6,0.5-0.6c0.5,0,0.6,0.3,0.6,0.6
		v47.2h24.8c0.4,0,0.6,0.1,0.6,0.5c0,0.5-0.3,0.6-0.6,0.6h-24.8V1599.6z M164.3,1599.7c-0.4,0-0.5-0.3-0.5-0.6v-50.2
		c0-0.1,0.1-0.1,0.5-0.1c0.5,0,0.8,0.5,0.8,1.4v48.9c0,0.5-0.1,0.6-0.5,0.6H164.3z M140.6,1599.7c-0.4,0-0.5-0.3-0.5-0.6v-34.6
		c0-0.1,0.1-0.3,0.5-0.3c0.5,0,0.6,0.5,0.6,1.4v8.9c0.3-1.9,0.8-3.6,1.4-5c0.8-1.4,1.5-2.6,2.4-3.4c0.9-0.9,2-1.4,3.1-1.8
		c1.1-0.4,2.3-0.6,3.6-0.6c0.5,0,0.9,0,1.4,0.1s1,0.3,1.5,0.5c0.5,0.1,0.9,0.4,1.1,0.5c0.3,0.3,0.5,0.4,0.5,0.6c0,0.3,0,0.4-0.1,0.5
		c-0.6-0.3-1.3-0.6-2.2-0.8c-0.8-0.3-1.7-0.4-2.4-0.4c-3.2,0-5.7,1.4-7.7,4.1c-1.9,2.7-2.8,6.8-2.8,12.1v18
		C141.1,1599.6,141,1599.7,140.6,1599.7L140.6,1599.7z M112.5,1599.2c2.2,0,4.2-0.4,6-1c1.9-0.8,3.6-1.7,5-2.8
		c1.4-1.3,2.6-2.7,3.3-4.5c0.9-1.7,1.3-3.6,1.3-5.6v-4.1h-0.8c-5,0-9.1,0.3-12.4,0.6s-6,0.9-8,1.8c-2,0.8-3.4,1.8-4.3,3.1
		c-0.9,1.1-1.3,2.7-1.3,4.3c0,2.6,1,4.6,3.1,6.1C106.5,1598.4,109.2,1599.2,112.5,1599.2 M112.5,1600.1c-1.8,0-3.4-0.3-5-0.6
		c-1.4-0.5-2.7-1-3.8-1.8c-1-0.8-1.9-1.8-2.6-2.9c-0.6-1.1-0.9-2.4-0.9-3.8c0-1.9,0.5-3.6,1.4-4.9c0.9-1.4,2.4-2.4,4.5-3.3
		c2.2-0.9,4.9-1.5,8.4-1.9c3.4-0.5,7.8-0.6,12.9-0.6h0.8v-2.8c0-3.8-1.1-6.9-3.3-9.2c-2.2-2.2-5.2-3.3-9.2-3.3c-3.4,0-6.3,0.6-8.6,2
		c-2.3,1.3-3.8,2.9-4.7,5c-0.1,0-0.3,0-0.5-0.1c-0.1-0.1-0.3-0.3-0.3-0.5c0-0.3,0.1-0.6,0.5-1.1c0.4-0.6,0.9-1.3,1.5-1.9
		c1.1-1.1,2.6-2,4.5-2.9c1.9-0.9,4.3-1.4,7.5-1.4c4.2,0,7.5,1.1,10,3.6c2.4,2.4,3.6,5.6,3.6,9.8v22.3c0,0.1-0.1,0.1-0.5,0.1
		c-0.5,0-0.6-0.5-0.6-1.4v-8.8c-0.4,1.4-1,2.8-1.9,4.2c-0.9,1.3-2,2.4-3.4,3.3c-1.4,0.9-2.9,1.7-4.7,2.3
		C116.5,1599.8,114.5,1600.1,112.5,1600.1 M62.7,1582c0,2.4,0.4,4.7,1.1,6.8c0.8,2,1.9,3.8,3.3,5.5c1.4,1.5,3.2,2.7,5.2,3.6
		c2,0.9,4.3,1.3,6.9,1.3c2,0,3.8-0.3,5.5-0.8c1.7-0.5,2.9-1.3,4.1-2c1.1-0.9,2-1.8,2.7-2.8c0.8-1,1.1-2,1.5-3.1c0.1,0,0.3,0,0.4,0.1
		c0.3,0.1,0.3,0.3,0.3,0.6c0,0.3-0.3,0.8-0.6,1.8c-0.4,0.9-1.1,1.8-2.3,2.9c-1,1-2.6,2-4.5,2.9c-1.9,0.9-4.2,1.3-7.2,1.3
		c-2.7,0-5.1-0.5-7.3-1.4c-2.2-0.9-4.1-2.3-5.6-3.8c-1.5-1.7-2.8-3.6-3.6-5.9c-0.8-2.2-1.1-4.6-1.1-7.2s0.4-4.9,1.3-7
		c0.9-2.2,2-4.1,3.6-5.7c1.5-1.7,3.4-2.9,5.5-4c2.2-0.9,4.5-1.4,6.9-1.4c2.3,0,4.5,0.4,6.4,1.1c1.9,0.8,3.6,1.9,5,3.4
		c1.4,1.4,2.6,3.2,3.2,5.1c0.8,1.9,1.1,4.1,1.1,6.5c0,0.6-0.3,0.9-0.8,0.9h-31V1582z M93.5,1579.9c0-2.2-0.4-4.2-1.1-6
		c-0.8-1.9-1.7-3.4-3.1-4.7c-1.3-1.4-2.8-2.4-4.7-3.2c-1.8-0.8-3.7-1.1-5.9-1.1c-2.2,0-4.1,0.4-6,1.1c-1.9,0.8-3.4,1.8-4.9,3.2
		c-1.4,1.4-2.6,2.9-3.4,4.9c-0.9,1.8-1.5,3.8-1.8,5.9C62.6,1579.9,93.5,1579.9,93.5,1579.9z M38.9,1578.6c5.5,0,9.7-1.1,12.4-3.4
		c2.8-2.4,4.2-5.7,4.2-10c0-4.3-1.4-7.5-4.2-9.8c-2.8-2.4-6.9-3.6-12.5-3.6H26.6v26.8H38.9z M25.8,1599.7c-0.4,0-0.5-0.3-0.5-0.6
		v-47.2c0-0.8,0.4-1.1,1.1-1.1h12.4c5.9,0,10.3,1.3,13.4,3.8s4.5,6.1,4.5,10.6c0,4.6-1.5,8.2-4.5,10.7s-7.4,3.8-13.3,3.8H26.4v19.3
		c0,0.4-0.1,0.6-0.5,0.6h-0.1V1599.7z"/>
	<path fill="#9B3869" d="M262.7,1663c-3.2,0-5.7-0.4-7.7-1.1c-1.9-0.8-3.3-1.7-4.2-2.7c-0.6-0.8-1.1-1.3-1.5-1.8
		c-0.3-0.5-0.4-0.8-0.4-1s0.1-0.4,0.3-0.5c0.3-0.1,0.4-0.1,0.5-0.1c0.9,1.8,2.4,3.3,4.5,4.5c2.2,1.1,5,1.8,8.6,1.8
		c1.9,0,3.6-0.3,5.1-0.6c1.5-0.5,2.8-1,4-1.8c1-0.8,1.9-1.7,2.4-2.7c0.5-1,0.8-2.2,0.8-3.4c0-1.4-0.4-2.7-1-3.6
		c-0.6-0.9-1.5-1.7-2.7-2.3c-1.1-0.6-2.4-1-3.8-1.4s-2.9-0.8-4.6-1c-1.5-0.3-3.1-0.6-4.7-1c-1.5-0.4-2.8-0.9-4.1-1.5
		c-1.1-0.6-2.2-1.5-2.9-2.6c-0.8-1-1.1-2.4-1.1-4.1c0-1.4,0.3-2.6,0.9-3.7c0.6-1.1,1.5-2.2,2.7-2.9c1.1-0.9,2.4-1.5,4-1.9
		c1.5-0.5,3.3-0.6,5.1-0.6c2.6,0,4.7,0.4,6.6,1.3c1.9,0.8,3.4,1.8,4.5,2.8c0.3,0.3,0.5,0.6,0.8,1c0.3,0.4,0.4,0.8,0.4,0.9
		c0,0.3-0.1,0.5-0.3,0.6c-0.1,0.1-0.3,0.1-0.4,0.1c-0.8-1.7-2.2-2.9-4.3-4.1c-2.2-1.1-4.6-1.7-7.3-1.7c-3.4,0-6.1,0.8-8.3,2.3
		c-2.2,1.5-3.2,3.6-3.2,5.9c0,1.4,0.4,2.7,1,3.6c0.6,0.9,1.5,1.7,2.7,2.3c1.1,0.5,2.4,1,4,1.4c1.4,0.4,2.9,0.6,4.5,1
		c1.7,0.4,3.3,0.8,4.9,1.1c1.5,0.4,2.9,0.9,4.2,1.5c1.1,0.6,2.2,1.5,2.8,2.6c0.8,1,1.1,2.3,1.1,4c0,1.4-0.4,2.7-1,3.8
		c-0.6,1.1-1.5,2.2-2.7,3.1c-1.1,0.9-2.6,1.5-4.3,2C266.6,1662.8,264.7,1663,262.7,1663 M212,1644.8c0,2.4,0.4,4.7,1.1,6.8
		c0.8,2,1.9,3.8,3.3,5.5c1.4,1.5,3.2,2.7,5.2,3.6c2,0.9,4.3,1.3,6.9,1.3c2,0,3.8-0.3,5.5-0.8c1.7-0.5,2.9-1.3,4.1-2
		c1.1-0.9,2-1.8,2.7-2.8c0.6-1,1.1-2,1.5-3.1c0.1,0,0.3,0,0.4,0.1c0.3,0.1,0.3,0.3,0.3,0.6c0,0.3-0.3,0.9-0.6,1.8
		c-0.4,0.9-1.1,1.8-2.3,2.9c-1,1-2.6,2-4.5,2.9c-1.9,0.9-4.2,1.3-7.2,1.3c-2.7,0-5.1-0.5-7.3-1.4c-2.2-0.9-4.1-2.3-5.6-3.8
		c-1.5-1.7-2.8-3.6-3.6-5.9c-0.8-2.2-1.1-4.6-1.1-7.2c0-2.6,0.4-4.9,1.3-7s2-4.1,3.6-5.7s3.4-2.9,5.5-4c2.2-1,4.3-1.4,6.9-1.4
		c2.3,0,4.5,0.4,6.4,1.1c1.9,0.8,3.6,1.9,5,3.4c1.4,1.4,2.6,3.2,3.2,5.1c0.8,1.9,1.1,4.1,1.1,6.5c0,0.6-0.3,0.9-0.8,0.9h-31V1644.8z
		 M242.7,1642.7c0-2.2-0.4-4.2-1.1-6c-0.8-1.9-1.7-3.4-3.1-4.7c-1.3-1.4-2.8-2.4-4.7-3.2c-1.8-0.8-3.7-1.1-5.9-1.1
		c-2.2,0-4.1,0.4-6,1.1c-1.9,0.8-3.4,1.8-4.9,3.2c-1.4,1.4-2.6,2.9-3.4,4.9c-0.9,1.8-1.5,3.8-1.8,5.9
		C211.8,1642.7,242.7,1642.7,242.7,1642.7z M201.4,1662.5c-0.4,0-0.5-0.3-0.5-0.6v-34.1c0-0.5,0.1-0.6,0.5-0.6
		c0.5,0,0.6,0.3,0.6,0.6v34.2c0,0.4-0.1,0.6-0.5,0.6h-0.1V1662.5z M201.4,1616.3c-0.8,0-1-0.4-1-1.1s0.4-1.1,1.1-1.1
		c0.8,0,1,0.4,1,1.1C202.5,1615.9,202.1,1616.3,201.4,1616.3 M177.6,1662.5c-0.4,0-0.5-0.3-0.5-0.6v-34.6c0-0.1,0.1-0.3,0.5-0.3
		c0.5,0,0.6,0.5,0.6,1.4v8.9c0.3-1.9,0.8-3.6,1.4-5c0.8-1.4,1.5-2.6,2.4-3.4c1-0.9,2-1.4,3.1-1.8c1.1-0.4,2.3-0.6,3.6-0.6
		c0.5,0,0.9,0,1.4,0.1c0.5,0.1,1,0.3,1.5,0.5c0.5,0.1,0.9,0.4,1.1,0.5c0.3,0.3,0.5,0.4,0.5,0.6s0,0.4-0.1,0.5
		c-0.6-0.3-1.3-0.6-2.2-0.9c-0.8-0.3-1.7-0.4-2.4-0.4c-3.2,0-5.7,1.4-7.7,4.1c-1.9,2.7-2.8,6.8-2.8,12.1v18c0,0.5-0.1,0.6-0.5,0.6
		l0,0V1662.5z M136.9,1644.8c0,2.4,0.4,4.7,1.1,6.8s1.9,3.8,3.3,5.5c1.4,1.5,3.2,2.7,5.2,3.6c2,0.9,4.3,1.3,6.9,1.3
		c2,0,3.8-0.3,5.5-0.8c1.7-0.5,2.9-1.3,4.1-2c1.1-0.9,2-1.8,2.7-2.8c0.8-1,1.1-2,1.5-3.1c0.1,0,0.3,0,0.4,0.1
		c0.3,0.1,0.3,0.3,0.3,0.6c0,0.3-0.3,0.9-0.6,1.8c-0.4,0.9-1.1,1.8-2.3,2.9c-1,1-2.6,2-4.5,2.9c-1.9,0.9-4.2,1.3-7.2,1.3
		c-2.7,0-5.1-0.5-7.3-1.4s-4.1-2.3-5.6-3.8c-1.5-1.7-2.8-3.6-3.6-5.9c-0.8-2.2-1.1-4.6-1.1-7.2c0-2.6,0.4-4.9,1.3-7
		c0.9-2.2,2-4.1,3.6-5.7s3.4-2.9,5.5-4c2.2-1,4.3-1.4,6.9-1.4c2.3,0,4.5,0.4,6.4,1.1c1.9,0.8,3.6,1.9,5,3.4c1.4,1.4,2.6,3.2,3.2,5.1
		c0.8,1.9,1.1,4.1,1.1,6.5c0,0.6-0.3,0.9-0.8,0.9h-31.2v1.1H136.9z M167.7,1642.7c0-2.2-0.4-4.2-1.1-6c-0.8-1.9-1.7-3.4-3.1-4.7
		c-1.3-1.4-2.8-2.4-4.7-3.2c-1.8-0.8-3.7-1.1-5.7-1.1c-2.2,0-4.1,0.4-6,1.1c-1.9,0.8-3.4,1.8-4.9,3.2c-1.4,1.4-2.6,2.9-3.4,4.9
		c-0.9,1.8-1.5,3.8-1.8,5.9C136.9,1642.7,167.7,1642.7,167.7,1642.7z M126.3,1662.5c-0.4,0-0.5-0.3-0.5-0.6v-50.1
		c0-0.1,0.1-0.1,0.5-0.1c0.5,0,0.8,0.5,0.8,1.4v48.9c0,0.5-0.1,0.6-0.5,0.6h-0.3V1662.5z M113.4,1662.5c-0.4,0-0.5-0.3-0.5-0.6
		v-50.1c0-0.1,0.1-0.1,0.5-0.1c0.5,0,0.8,0.5,0.8,1.4v48.9c0,0.5-0.1,0.6-0.5,0.6h-0.3V1662.5z M85,1662c2.2,0,4.2-0.4,6-1
		c1.9-0.8,3.6-1.7,5-2.8c1.4-1.3,2.6-2.7,3.3-4.5c0.9-1.7,1.3-3.6,1.3-5.6v-4.1h-0.8c-5,0-9.1,0.3-12.4,0.6s-6,0.9-8,1.8
		c-2,0.8-3.4,1.8-4.3,3.1c-0.9,1.1-1.3,2.7-1.3,4.3c0,2.6,1,4.6,3.1,6.1C79,1661.2,81.7,1662,85,1662 M85,1663c-1.8,0-3.4-0.3-5-0.6
		c-1.4-0.5-2.7-1-3.8-1.8c-1-0.8-1.9-1.8-2.6-2.9c-0.6-1.1-0.9-2.4-0.9-3.8c0-1.9,0.5-3.6,1.4-4.9c0.9-1.4,2.4-2.4,4.5-3.3
		c2.2-0.9,4.9-1.5,8.4-1.9c3.4-0.5,7.8-0.6,12.9-0.6h0.8v-2.8c0-3.8-1.1-6.9-3.3-9.2c-2.2-2.2-5.2-3.3-9.2-3.3c-3.4,0-6.3,0.6-8.6,2
		c-2.3,1.3-3.8,2.9-4.7,5c-0.1,0-0.3,0-0.5-0.1c-0.1-0.1-0.3-0.3-0.3-0.5s0.1-0.6,0.5-1.1c0.4-0.6,0.9-1.3,1.5-1.9
		c1.1-1.1,2.6-2,4.5-2.9c1.9-0.9,4.3-1.4,7.5-1.4c4.2,0,7.5,1.1,10,3.6s3.6,5.6,3.6,9.8v22.2c0,0.1-0.1,0.1-0.5,0.1
		c-0.5,0-0.6-0.5-0.6-1.4v-8.8c-0.4,1.4-1,2.8-1.9,4.2c-0.9,1.3-2,2.4-3.4,3.3c-1.4,1-2.9,1.7-4.7,2.3C89,1662.7,87.1,1663,85,1663
		 M45.5,1663c-3.6,0-6.6-0.6-9.4-1.9c-2.8-1.3-5.2-2.9-7.2-5.2c-2-2.2-3.6-4.9-4.6-7.8c-1-3.1-1.5-6.3-1.5-9.8s0.5-6.9,1.7-9.8
		c1.1-3.1,2.7-5.7,4.7-7.9c2-2.3,4.5-4.1,7.3-5.2c2.8-1.3,6-1.9,9.4-1.9c3.6,0,6.5,0.5,8.8,1.7c2.4,1,4.3,2.3,5.9,3.8
		c1.1,1.1,2,2.3,2.6,3.4c0.5,1.1,0.8,1.8,0.8,2c0,0.4-0.1,0.6-0.3,0.6c-0.3,0.1-0.4,0.1-0.5,0.1c-0.5-1.4-1.1-2.6-1.9-3.8
		c-0.8-1.3-1.9-2.4-3.3-3.4c-1.4-1-3.1-1.9-5.1-2.7c-1.9-0.8-4.3-1-6.9-1c-3.3,0-6.3,0.6-8.9,1.8c-2.7,1.1-5,2.9-6.9,5.1
		s-3.4,4.7-4.5,7.7s-1.5,6.1-1.5,9.6c0,3.3,0.5,6.5,1.5,9.4c1,2.9,2.4,5.5,4.3,7.5c1.9,2.2,4.2,3.8,6.9,5c2.7,1.1,5.6,1.8,8.9,1.8
		c2.8,0,5.4-0.5,7.7-1.4c2.4-0.9,4.3-2.2,6.1-3.8c1.7-1.7,3.1-3.6,4-5.9c0.9-2.2,1.4-4.6,1.5-7.3v-2.4H47.1c-0.5,0-0.6-0.1-0.6-0.5
		s0.3-0.5,0.6-0.5h17.7c0.8,0,1,0.4,1,1.1v20.9c0,0.1-0.1,0.1-0.5,0.1c-0.4,0-0.6-0.5-0.6-1.4v-12.3c-0.5,2.2-1.3,4.1-2.6,5.9
		c-1.1,1.7-2.6,3.2-4.3,4.5c-1.7,1.1-3.6,2.2-5.7,2.8C50.2,1662.7,47.9,1663,45.5,1663"/>
</g>
</svg>
